<?xml version="1.0" encoding="utf-8"?>
<!-- Generator: Adobe Illustrator 22.1.0, SVG Export Plug-In . SVG Version: 6.00 Build 0)  -->
<svg version="1.1" id="Layer_1" xmlns="http://www.w3.org/2000/svg" xmlns:xlink="http://www.w3.org/1999/xlink" x="0px" y="0px"
	 viewBox="0 0 60 60" style="enable-background:new 0 0 60 60;" xml:space="preserve">
<style type="text/css">
	.st0{clip-path:url(#SVGID_2_);enable-background:new    ;}
	.st1{clip-path:url(#SVGID_4_);}
	.st2{clip-path:url(#SVGID_6_);fill:none;stroke:#BDBDBD;stroke-width:2.4;stroke-miterlimit:10;}
	.st3{clip-path:url(#SVGID_8_);fill:#BDBDBD;}
	.st4{clip-path:url(#SVGID_10_);fill:#BDBDBD;}
	.st5{fill:none;stroke:#BDBDBD;stroke-width:1.2;stroke-linecap:round;stroke-linejoin:round;stroke-miterlimit:10;}
</style>
<g>
	<defs>
		<path id="SVGID_1_" d="M34,10h-8c-8.8,0-16,7.2-16,16s7.2,16,16,16l4,8l4-8c8.8,0,16-7.2,16-16S42.8,10,34,10z"/>
	</defs>
	<clipPath id="SVGID_2_">
		<use xlink:href="#SVGID_1_"  style="overflow:visible;"/>
	</clipPath>
	<g class="st0">
		<g>
			<defs>
				<rect id="SVGID_3_" x="-2" y="-2" width="64" height="64"/>
			</defs>
			<clipPath id="SVGID_4_">
				<use xlink:href="#SVGID_3_"  style="overflow:visible;"/>
			</clipPath>
			<g class="st1">
				<defs>
					<rect id="SVGID_5_" x="10" y="10" width="40" height="40"/>
				</defs>
				<clipPath id="SVGID_6_">
					<use xlink:href="#SVGID_5_"  style="overflow:visible;"/>
				</clipPath>
				<path class="st2" d="M34,10h-8c-8.8,0-16,7.2-16,16s7.2,16,16,16l4,8l4-8c8.8,0,16-7.2,16-16S42.8,10,34,10z"/>
			</g>
		</g>
	</g>
</g>
<g>
	<defs>
		<path id="SVGID_7_" d="M26,23c0,0.6-0.4,1-1,1c-0.6,0-1-0.4-1-1c0-0.6,0.4-1,1-1C25.6,22,26,22.4,26,23"/>
	</defs>
	<clipPath id="SVGID_8_">
		<use xlink:href="#SVGID_7_"  style="overflow:visible;"/>
	</clipPath>
	<rect x="19" y="17" class="st3" width="12" height="12"/>
</g>
<g>
	<defs>
		<path id="SVGID_9_" d="M36,23c0,0.6-0.4,1-1,1c-0.6,0-1-0.4-1-1c0-0.6,0.4-1,1-1C35.6,22,36,22.4,36,23"/>
	</defs>
	<clipPath id="SVGID_10_">
		<use xlink:href="#SVGID_9_"  style="overflow:visible;"/>
	</clipPath>
	<rect x="29" y="17" class="st4" width="12" height="12"/>
</g>
<path class="st5" d="M24.8,30c1.1-1.2,3-2,5-2c2,0,3.8,0.8,5,1.9"/>
</svg>
